<svg width="35" height="35" viewBox="0 0 35 35" fill="none" xmlns="http://www.w3.org/2000/svg">
<g clip-path="url(#clip0_3_173)">
<path fill-rule="evenodd" clip-rule="evenodd" d="M4.04688 4.1642C4.04688 3.95766 4.06331 3.76439 4.09474 3.58515L16.9598 17.1669L4.07411 30.7704C4.05616 30.6304 4.04688 30.4827 4.04688 30.3274V4.1642ZM5.46472 32.4369C5.93816 32.5133 6.49943 32.3981 7.09995 32.0628L22.7668 23.2974L18.4444 18.7341L5.46472 32.4369ZM19.9289 17.1669L24.7081 22.2123L30.5307 18.9552C32.2092 18.0148 32.2092 16.4769 30.5307 15.5388L24.6092 12.2259L19.9289 17.1669ZM22.6686 11.1401L7.09995 2.42991C6.61693 2.15901 6.15916 2.03125 5.75304 2.03125C5.70047 2.03125 5.64875 2.03337 5.59794 2.0376L18.4444 15.5997L22.6686 11.1401Z" fill="#4B4B4B"/>
</g>
<defs>
<clipPath id="clip0_3_173">
<rect width="34" height="34" fill="white" transform="translate(0.546875 0.195312)"/>
</clipPath>
</defs>
</svg>
