<svg width="35" height="35" viewBox="0 0 35 35" fill="none" xmlns="http://www.w3.org/2000/svg">
<path d="M25.4092 17.7674C25.4389 15.4629 26.6487 13.3342 28.6146 12.1272C27.3688 10.3503 25.3568 9.26407 23.1857 9.19624C20.9016 8.9568 18.6872 10.5612 17.5232 10.5612C16.3367 10.5612 14.5446 9.22001 12.6148 9.25966C10.0756 9.34158 7.76582 10.7483 6.53048 12.9652C3.89978 17.5137 5.86205 24.1985 8.38205 27.8751C9.64285 29.6754 11.1164 31.6865 13.0445 31.6152C14.9312 31.5371 15.6358 30.4137 17.9133 30.4137C20.1696 30.4137 20.8307 31.6152 22.798 31.5699C24.8225 31.5371 26.0981 29.7616 27.3146 27.9441C28.2205 26.6613 28.9176 25.2435 29.3801 23.7433C26.9755 22.7276 25.412 20.3747 25.4092 17.7674Z" fill="#4B4B4B"/>
<path d="M21.6935 6.77292C22.7974 5.44955 23.3412 3.74859 23.2095 2.03125C21.523 2.20814 19.9652 3.01308 18.8464 4.28567C17.7417 5.54125 17.182 7.18389 17.2907 8.85179C18.9998 8.86936 20.6225 8.10314 21.6935 6.77292Z" fill="#4B4B4B"/>
</svg>
