<svg width="168" height="221" viewBox="0 0 168 221" fill="none" xmlns="http://www.w3.org/2000/svg">
<g clip-path="url(#clip0_3_185)">
<path d="M144.686 44.4062C133.891 44.4062 125.139 53.1586 125.139 63.9542V94.0364C125.139 104.833 133.891 113.584 144.686 113.584H158.427C159.968 113.584 161.445 112.972 162.534 111.883C163.623 110.794 164.234 109.317 164.234 107.776V63.9542C164.234 53.1586 155.483 44.4062 144.686 44.4062Z" fill="#EA2B2B"/>
<path d="M91.8624 197.914C92.5692 201.031 91.7827 204.006 89.502 206.841" stroke="#F49000" stroke-width="11.979" stroke-linecap="round" stroke-linejoin="round"/>
<path d="M41.0962 44.3594H133.663C144.088 44.3594 152.539 52.8104 152.539 63.2354V158.716C152.539 169.141 144.088 177.592 133.663 177.592H41.0962C30.6713 177.592 22.2202 169.141 22.2202 158.716V63.2354C22.2202 52.8104 30.6713 44.3594 41.0962 44.3594Z" fill="#FF4B4B"/>
<path d="M85.6545 44.3594H39.5168C28.966 44.3594 20.4135 53.3922 20.4135 64.5352V157.417C20.4135 168.56 28.966 177.593 39.5168 177.593H85.6545C96.2053 177.593 104.758 168.56 104.758 157.417V64.5352C104.758 53.3922 96.2053 44.3594 85.6545 44.3594Z" fill="#FF4B4B"/>
<path d="M25.7201 54.1065L33.2276 51.2227C34.1176 50.915 35.0923 50.9652 35.9459 51.3627C36.7996 51.7602 37.4653 52.4738 37.8027 53.353L44.0168 69.5597C44.3617 70.4585 44.3355 71.4575 43.9439 72.337C43.5523 73.2164 42.8274 73.9043 41.9286 74.2493L22.5915 81.678V64.5336C22.5915 60.7349 23.6989 57.1232 25.7201 54.1065Z" fill="#1CB0F6" stroke="#FFDE00" stroke-width="4.356"/>
<path d="M72.4432 77.4072L72.4468 77.4035C76.7946 73.8854 83.1718 74.5573 86.6909 78.905C90.2127 83.2565 89.5417 89.6392 85.1922 93.1629L78.1613 98.859L78.1567 98.8627C73.809 102.382 67.4317 101.71 63.9136 97.3621C60.3917 93.0107 61.0627 86.628 65.4123 83.1034L72.4432 77.4072Z" fill="white" stroke="#F49000" stroke-width="4.356"/>
<path d="M121.769 61.9163C121.769 52.2199 129.629 44.3594 139.326 44.3594C149.022 44.3594 156.883 52.2199 156.883 61.9163V160.035C156.883 169.732 149.022 177.592 139.326 177.592C129.629 177.592 121.769 169.732 121.769 160.035V61.9163Z" fill="#EA2B2B"/>
<path d="M149.517 110.162L161.115 112.84C165.218 113.787 167.775 117.88 166.828 121.982L158.851 156.534C157.904 160.636 153.811 163.194 149.709 162.247L138.11 159.569C134.008 158.622 131.45 154.529 132.397 150.426L140.374 115.875C141.321 111.773 145.414 109.215 149.517 110.162Z" fill="#CCF8F7"/>
<path d="M163.304 121.762C155.711 125.051 150.633 127.012 148.068 127.643C145.873 128.185 143.908 127.388 142.169 125.251C142.04 125.092 141.869 124.974 141.676 124.908C141.483 124.842 141.276 124.831 141.077 124.878C140.878 124.924 140.697 125.025 140.553 125.17C140.409 125.314 140.308 125.496 140.263 125.695L134.738 149.87C134.288 151.838 134.637 153.905 135.709 155.616C136.781 157.327 138.487 158.543 140.454 158.997L148.201 160.785C150.169 161.239 152.237 160.894 153.951 159.825C155.664 158.756 156.884 157.05 157.341 155.083L164.798 123.008C164.843 122.812 164.834 122.606 164.769 122.415C164.705 122.224 164.589 122.054 164.435 121.925C164.28 121.796 164.092 121.712 163.893 121.684C163.693 121.655 163.489 121.682 163.304 121.762Z" fill="#47D7FF"/>
<path d="M151.774 100.553L164.462 103.482C165.439 103.708 166.048 104.682 165.822 105.659L165.009 109.18C164.784 110.157 163.809 110.766 162.833 110.54L150.144 107.611C149.167 107.385 148.558 106.411 148.784 105.434L149.597 101.913C149.822 100.936 150.797 100.327 151.774 100.553Z" fill="#1899D6"/>
<path d="M149.142 107.339L162.895 110.514C163.87 110.739 164.478 111.712 164.253 112.686C164.028 113.661 163.055 114.268 162.081 114.043L148.327 110.868C147.353 110.643 146.745 109.671 146.97 108.696C147.195 107.722 148.167 107.114 149.142 107.339Z" fill="#CCF8F7"/>
<path d="M16.4302 178.563C7.83337 178.563 0.864269 171.4 0.864269 162.563C0.864269 153.726 7.83337 146.562 16.4302 146.562C25.027 146.562 31.9961 153.726 31.9961 162.563C31.9961 171.4 25.027 178.563 16.4302 178.563Z" fill="#78C800"/>
<path d="M28.3857 141.734H42.8489C51.6503 141.734 58.7852 148.869 58.7852 157.671C58.7852 166.472 51.6503 173.607 42.8489 173.607H28.3857C19.5844 173.607 12.4495 166.472 12.4495 157.671C12.4495 148.869 19.5844 141.734 28.3857 141.734Z" stroke="#FF4B4B" stroke-width="6.897"/>
<path d="M87.6543 88.3135C68.6573 93.9446 56.3392 96.7597 50.6989 96.7597C47.4869 96.7597 44.142 95.3985 40.6642 92.675C33.8928 87.373 24.1046 88.5647 18.8026 95.337C16.6574 98.077 15.4917 101.457 15.4916 104.936V151.698C15.4916 177.148 36.1221 197.778 61.5724 197.778C87.0209 197.778 107.652 177.148 107.652 151.697V103.244C107.652 94.644 100.68 87.6719 92.0791 87.6719C90.5813 87.6719 89.0908 87.8882 87.6543 88.3135Z" fill="#78C800"/>
<path d="M63.6561 164.926L52.0401 164.922C51.4167 164.922 50.9767 165.496 51.1692 166.057C52.0932 168.751 54.7809 170.613 57.8499 170.613C60.9189 170.614 63.6066 168.755 64.5287 166.061C64.7212 165.501 64.2785 164.926 63.6561 164.926ZM44.4702 164.926L32.8542 164.922C32.2309 164.922 31.7909 165.496 31.9834 166.057C32.9074 168.751 35.5951 170.613 38.6641 170.613C41.7331 170.614 44.4207 168.755 45.3429 166.061C45.5354 165.501 45.0927 164.926 44.4702 164.926ZM53.5205 174.705L41.9036 174.701C41.2812 174.701 40.8402 175.276 41.0327 175.836C41.9577 178.531 44.6453 180.392 47.7143 180.392C50.7833 180.393 53.4701 178.534 54.3922 175.841C54.5847 175.28 54.1429 174.705 53.5205 174.705Z" fill="#8EE000"/>
<path d="M27.2409 198.492C28.4985 201.429 30.8837 203.373 34.3945 204.326" stroke="#F49000" stroke-width="11.979" stroke-linecap="round" stroke-linejoin="round"/>
<path d="M51.1346 0.898438H42.1815C32.5583 0.898438 24.7575 8.69927 24.7575 18.3224V26.9373C24.7575 36.5604 32.5583 44.3613 42.1815 44.3613H68.5586V18.3224C68.5595 8.7011 60.7587 0.898438 51.1346 0.898438Z" fill="#1CB0F6"/>
<path d="M63.1698 3.79688H102.903C111.523 3.79688 118.512 10.7853 118.512 19.4059V28.7531C118.512 37.3737 111.523 44.3621 102.903 44.3621H63.1698C54.5492 44.3621 47.5608 37.3737 47.5608 28.7531V19.4059C47.5608 10.7853 54.5492 3.79688 63.1698 3.79688Z" fill="#AA572A"/>
<path d="M73.6757 0.898438H98.5531C108.577 0.898438 116.703 9.02447 116.703 19.0484V26.2113C116.703 36.2352 108.577 44.3613 98.5531 44.3613H73.6757C63.6517 44.3613 55.5257 36.2352 55.5257 26.2113V19.0484C55.5257 9.02447 63.6517 0.898438 73.6757 0.898438Z" fill="#1CB0F6"/>
<path d="M107.699 3.79688H133.676C142.297 3.79688 149.285 10.7853 149.285 19.4059V28.7531C149.285 37.3737 142.297 44.3621 133.676 44.3621H107.699C99.0781 44.3621 92.0897 37.3737 92.0897 28.7531V19.4059C92.0897 10.7853 99.0781 3.79688 107.699 3.79688Z" fill="#AA572A"/>
<path d="M118.564 0.898438H140.186C150.009 0.898438 157.973 8.86195 157.973 18.6854V26.5743C157.973 36.3978 150.009 44.3613 140.186 44.3613H118.564C108.741 44.3613 100.777 36.3978 100.777 26.5743V18.6854C100.777 8.86195 108.741 0.898438 118.564 0.898438Z" fill="#1CB0F6"/>
<path d="M142.088 0.898438H144.532C153.554 0.898438 160.867 8.21187 160.867 17.2334V28.0263C160.867 37.0478 153.554 44.3613 144.532 44.3613H142.088C133.067 44.3613 125.753 37.0478 125.753 28.0263V17.2334C125.753 8.21187 133.067 0.898438 142.088 0.898438Z" fill="#0190D3"/>
<path d="M160.128 145.719H122.131V177.591H160.128C161.283 177.591 162.391 177.132 163.208 176.316C164.025 175.499 164.484 174.391 164.484 173.236V150.075C164.484 148.919 164.025 147.811 163.209 146.995C162.392 146.178 161.284 145.719 160.128 145.719Z" fill="#EA2B2B"/>
<path d="M154.351 151.151C153.338 151.151 152.504 151.948 152.457 152.96L151.934 164.194C151.919 164.521 151.97 164.847 152.085 165.154C152.2 165.46 152.375 165.74 152.601 165.977C152.827 166.213 153.098 166.401 153.399 166.53C153.7 166.659 154.024 166.725 154.351 166.725C154.678 166.725 155.001 166.659 155.302 166.53C155.603 166.401 155.874 166.213 156.1 165.977C156.326 165.74 156.502 165.46 156.616 165.154C156.731 164.847 156.782 164.521 156.767 164.194L156.244 152.96C156.222 152.472 156.013 152.013 155.66 151.676C155.307 151.339 154.838 151.151 154.351 151.151ZM132.384 87.8203C131.372 87.8203 130.537 88.616 130.491 89.628L129.968 100.864C129.953 101.19 130.005 101.517 130.119 101.823C130.234 102.129 130.409 102.409 130.635 102.645C130.861 102.882 131.133 103.07 131.433 103.199C131.734 103.327 132.058 103.394 132.385 103.394C132.712 103.394 133.035 103.327 133.336 103.199C133.636 103.07 133.908 102.882 134.134 102.645C134.36 102.409 134.535 102.129 134.65 101.823C134.764 101.517 134.816 101.19 134.801 100.864L134.278 89.628C134.256 89.1409 134.046 88.6814 133.694 88.3447C133.341 88.0081 132.871 87.8203 132.384 87.8203Z" fill="#DF8A8A"/>
<path opacity="0.551" d="M156.157 81.6641H131.547C130.946 81.6641 130.458 82.1517 130.458 82.7531V84.5589C130.458 85.1602 130.946 85.6479 131.547 85.6479H156.157C156.446 85.6479 156.723 85.5332 156.927 85.3289C157.131 85.1247 157.246 84.8477 157.246 84.5589V82.7531C157.246 82.1517 156.758 81.6641 156.157 81.6641Z" fill="#D8D8D8"/>
<path d="M91.9155 141.016H100.223C109.325 141.016 116.703 148.394 116.703 157.495C116.703 166.596 109.325 173.974 100.223 173.974H91.9155C82.814 173.974 75.4357 166.596 75.4357 157.495C75.4357 148.394 82.814 141.016 91.9155 141.016Z" stroke="#EA2B2B" stroke-width="6.897"/>
<path d="M97.3367 181.392C86.6409 181.392 77.9703 172.556 77.9703 161.657C77.9703 150.757 86.6409 141.922 97.3367 141.922C108.032 141.922 116.703 150.757 116.703 161.657C116.703 172.556 108.032 181.392 97.3367 181.392Z" fill="#78C800"/>
<path d="M110.533 216.211H19.457" stroke="#E2E2E2" stroke-width="7.26733" stroke-linecap="round" stroke-linejoin="round"/>
</g>
<defs>
<clipPath id="clip0_3_185">
<rect width="166.833" height="220" fill="white" transform="translate(0.5 0.375)"/>
</clipPath>
</defs>
</svg>
