<svg width="32" height="26" viewBox="0 0 32 26" fill="none" xmlns="http://www.w3.org/2000/svg">
<path fill-rule="evenodd" clip-rule="evenodd" d="M3.4587 5.0689L7.38296 8.16735C7.66033 8.38634 8.06018 8.35184 8.29593 8.08858L14.1956 1.50024C15.1816 0.399238 16.8734 0.305948 17.9744 1.29187C18.0253 1.33749 18.0745 1.38505 18.1218 1.43444L24.5081 8.10237C24.7528 8.3578 25.154 8.37867 25.4238 8.14999L29.0594 5.0689C29.7854 4.45361 30.8727 4.54337 31.488 5.26938C31.8486 5.69482 31.9809 6.26845 31.8433 6.80887L27.4682 23.982C27.2299 24.9176 26.3873 25.5724 25.4219 25.5724H6.79424C5.82874 25.5724 4.9862 24.9176 4.74785 23.982L0.430546 7.03538C0.170672 6.0153 0.786942 4.97769 1.80702 4.71782C2.38222 4.57128 2.99285 4.70108 3.4587 5.0689Z" fill="#FFC800"/>
<path fill-rule="evenodd" clip-rule="evenodd" d="M5.88446 9.39928L7.12889 10.537C7.55927 10.9305 8.22714 10.9006 8.62063 10.4702C8.63716 10.4522 8.65305 10.4335 8.66828 10.4143L11.7652 6.51388C12.2247 5.93515 13.0663 5.8385 13.645 6.29799C13.9375 6.53019 14.1196 6.87402 14.1473 7.24639L15.2452 21.9709C15.3001 22.7079 14.7473 23.3498 14.0103 23.4047C13.9772 23.4072 13.9441 23.4084 13.9109 23.4084H8.72147C8.10417 23.4084 7.56699 22.9861 7.42127 22.3863L4.46979 10.2362C4.35778 9.7751 4.64078 9.31049 5.10189 9.19848C5.37991 9.13094 5.6733 9.20623 5.88446 9.39928Z" fill="#FFDE00"/>
</svg>
