<svg width="186" height="145" viewBox="0 0 186 145" fill="none" xmlns="http://www.w3.org/2000/svg">
<g clip-path="url(#clip0_3_9)">
<path fill-rule="evenodd" clip-rule="evenodd" d="M63.4648 137.27C63.4648 133.189 66.7945 129.859 70.876 129.859H82.476C86.5574 129.859 89.8871 133.189 89.8871 137.27C89.8871 141.352 86.5574 144.682 82.476 144.682H70.876C66.7945 144.682 63.4648 141.352 63.4648 137.27Z" fill="#F49000"/>
<path fill-rule="evenodd" clip-rule="evenodd" d="M95.4727 137.27C95.4727 133.189 98.8023 129.859 102.884 129.859H114.484C118.565 129.859 121.895 133.189 121.895 137.27C121.895 141.352 118.565 144.682 114.484 144.682H102.884C98.8023 144.682 95.4727 141.352 95.4727 137.27Z" fill="#F49000"/>
<path d="M13.5185 109.233L55.3 33.6186C57.5556 29.6446 63.0334 29.0001 66.1482 32.3297C81.2926 48.5483 84.3 73.1445 73.3445 93.1223C62.3889 113.1 39.9408 123.519 18.1371 119.222C13.626 118.363 11.263 113.315 13.5185 109.233Z" fill="#58CC02"/>
<path d="M171.839 109.231L130.057 33.6158C127.802 29.5343 122.324 28.8898 119.102 32.2195C103.957 48.438 100.95 73.0343 111.905 93.0121C122.861 112.99 145.309 123.408 167.113 119.112C171.731 118.36 174.094 113.312 171.839 109.231Z" fill="#58CC02"/>
<path fill-rule="evenodd" clip-rule="evenodd" d="M61.8519 2.14433C76.8889 8.48137 87.2 11.7036 92.7852 11.7036C98.3704 11.7036 108.467 8.58877 123.289 2.25174C133.063 -1.93715 144.448 2.68137 148.637 12.4554C149.604 14.8184 150.141 17.3962 150.141 19.974V80.0147C150.141 111.807 124.363 137.585 92.5704 137.585C60.7778 137.478 35 111.807 35 80.0147V19.8666C35 9.23322 43.5926 0.640625 54.3333 0.640625C56.9111 0.640625 59.3815 1.17766 61.8519 2.14433Z" fill="#58CC02"/>
<path d="M88.274 98.2791C88.4888 97.5273 87.9518 96.8828 87.1999 96.8828H72.6999C71.9481 96.8828 71.411 97.6347 71.6259 98.2791C72.8073 101.609 76.137 103.972 79.8962 103.972C83.6555 103.972 87.0925 101.609 88.274 98.2791ZM112.441 96.8828H97.9407C97.1888 96.8828 96.6518 97.6347 96.8666 98.2791C98.0481 101.609 101.378 103.972 105.137 103.972C108.896 103.972 112.333 101.609 113.515 98.2791C113.73 97.6347 113.193 96.8828 112.441 96.8828ZM99.7666 109.02H85.2666C84.5148 109.02 83.9777 109.772 84.1925 110.416C85.374 113.746 88.7036 116.109 92.4629 116.109C96.2222 116.109 99.6592 113.746 100.841 110.416C101.163 109.772 100.626 109.02 99.7666 109.02Z" fill="#89E219"/>
<path d="M65.1826 11.1681L82.5826 30.0718C83.5493 31.0385 83.1196 32.6496 81.9382 33.2941C75.9233 35.9792 68.8345 34.4755 64.3233 29.4274C59.8122 24.3792 59.0604 17.1829 62.2826 11.4903C63.0345 10.3089 64.2159 10.2015 65.1826 11.1681Z" fill="#89E219"/>
<path fill-rule="evenodd" clip-rule="evenodd" d="M80.2205 27.7095C86.5575 34.1539 97.7279 34.1539 104.709 27.7095C111.691 21.265 103.635 65.0873 103.635 64.8724C103.635 64.8724 99.8761 64.765 92.3575 64.8724C90.3168 64.8724 86.665 64.8724 81.5094 64.8724C76.4613 35.8724 76.0316 23.4132 80.2205 27.7095Z" fill="#89E219"/>
<path d="M55.6256 15.6821L72.596 34.6932C73.5626 35.6599 73.133 37.271 71.9515 37.9154C65.9367 40.6006 58.8478 39.0969 54.3367 34.0488C49.8256 29.0006 49.0737 21.8043 52.4034 16.1117C53.0478 14.8228 54.6589 14.7154 55.6256 15.6821Z" fill="#89E219"/>
<path fill-rule="evenodd" clip-rule="evenodd" d="M63.5731 20.9453H64.2176C76.7842 20.9453 86.8805 31.149 86.8805 43.6083V55.6379C86.8805 68.2046 76.6768 78.3009 64.2176 78.3009H63.5731C51.0065 78.3009 40.9102 68.0972 40.9102 55.6379V43.7157C40.9102 31.149 51.0065 20.9453 63.5731 20.9453Z" fill="#89E219"/>
<path d="M119.747 11.1681L102.669 30.0718C101.703 31.0385 102.132 32.6496 103.314 33.2941C109.328 35.9792 116.417 34.4755 120.928 29.4274C125.44 24.3792 126.191 17.1829 122.862 11.4903C122.217 10.3089 120.606 10.2015 119.747 11.1681Z" fill="#89E219"/>
<path d="M129.63 15.6821L112.552 34.6932C111.585 35.6599 112.015 37.271 113.196 37.9154C119.211 40.6006 126.3 39.0969 130.811 34.0488C135.322 29.0006 136.074 21.8043 132.745 16.1117C132.208 14.8228 130.596 14.7154 129.63 15.6821Z" fill="#89E219"/>
<path fill-rule="evenodd" clip-rule="evenodd" d="M120.82 20.9453H121.465C134.031 20.9453 144.127 31.149 144.127 43.6083V55.6379C144.127 68.2046 133.924 78.3009 121.465 78.3009H120.927C108.468 78.3009 98.3719 68.2046 98.2645 55.7453L98.1571 43.7157C98.0497 31.149 108.146 20.9453 120.82 20.9453Z" fill="#89E219"/>
<path fill-rule="evenodd" clip-rule="evenodd" d="M92.6806 55.7422C97.0843 55.7422 100.736 59.394 100.736 63.7977V66.3755C100.736 70.7792 97.0843 74.4311 92.6806 74.4311C88.2769 74.4311 84.625 70.7792 84.625 66.3755V63.7977C84.625 59.394 88.2769 55.7422 92.6806 55.7422Z" fill="#F49000"/>
<path d="M81.5117 64.3348C82.4784 59.394 87.2043 55.7422 92.7895 55.7422C98.0525 55.7422 102.671 59.5014 103.638 64.3348V64.7644C103.638 65.0866 103.53 65.3014 103.208 65.194L92.7895 67.02C92.5747 67.02 92.5747 67.02 92.3599 67.02L81.9413 65.194C81.6191 65.194 81.5117 65.0866 81.5117 64.7644V64.3348Z" fill="#FFC200"/>
<path d="M95.0449 61.0088C94.8301 61.0088 94.7227 61.0088 94.5078 60.9014C93.1115 60.3644 91.8227 60.3644 90.6412 60.9014C89.7819 61.2236 88.9227 60.794 88.6004 60.0421C88.2782 59.1829 88.7078 58.3236 89.4597 58.0014C91.393 57.2495 93.4338 57.2495 95.5819 58.0014C96.4412 58.3236 96.8708 59.1829 96.5486 60.0421C96.3338 60.5792 95.6893 61.0088 95.0449 61.0088Z" fill="#FFDE00"/>
<path fill-rule="evenodd" clip-rule="evenodd" d="M64.7537 29.1016C73.4537 29.1016 80.5426 36.1904 80.5426 44.8904V54.4497C80.5426 63.1497 73.4537 70.2386 64.7537 70.2386C56.0537 70.2386 48.9648 63.1497 48.9648 54.4497V44.8904C48.9648 36.1904 56.0537 29.1016 64.7537 29.1016Z" fill="white"/>
<path fill-rule="evenodd" clip-rule="evenodd" d="M67.2236 38.125C71.3051 38.125 74.6347 41.4546 74.6347 45.5361V53.6991C74.6347 57.7806 71.3051 61.1102 67.2236 61.1102C63.1421 61.1102 59.8125 57.7806 59.8125 53.6991V45.5361C59.8125 41.4546 63.1421 38.125 67.2236 38.125Z" fill="#4B4B4B"/>
<path d="M60.9935 47.362C63.6629 47.362 65.8268 45.198 65.8268 42.5286C65.8268 39.8593 63.6629 37.6953 60.9935 37.6953C58.3241 37.6953 56.1602 39.8593 56.1602 42.5286C56.1602 45.198 58.3241 47.362 60.9935 47.362Z" fill="white"/>
<path fill-rule="evenodd" clip-rule="evenodd" d="M120.285 29.1016C128.985 29.1016 136.074 36.1904 136.074 44.8904V54.4497C136.074 63.1497 128.985 70.2386 120.285 70.2386C111.585 70.2386 104.496 63.1497 104.496 54.4497V44.8904C104.496 36.1904 111.585 29.1016 120.285 29.1016Z" fill="white"/>
<path fill-rule="evenodd" clip-rule="evenodd" d="M117.813 38.125C121.895 38.125 125.225 41.4546 125.225 45.5361V53.6991C125.225 57.7806 121.895 61.1102 117.813 61.1102C113.732 61.1102 110.402 57.7806 110.402 53.6991V45.5361C110.402 41.4546 113.732 38.125 117.813 38.125Z" fill="#4B4B4B"/>
<path d="M110.724 47.362C113.393 47.362 115.557 45.198 115.557 42.5286C115.557 39.8593 113.393 37.6953 110.724 37.6953C108.055 37.6953 105.891 39.8593 105.891 42.5286C105.891 45.198 108.055 47.362 110.724 47.362Z" fill="white"/>
</g>
<defs>
<clipPath id="clip0_3_9">
<rect width="161.111" height="145" fill="white" transform="translate(12.4453)"/>
</clipPath>
</defs>
</svg>
