<svg width="155" height="36" viewBox="0 0 155 36" fill="none" xmlns="http://www.w3.org/2000/svg">
<path d="M133.973 17.9988C133.973 12.3064 138.31 8.29464 144.057 8.29464C149.804 8.29464 154.141 12.3064 154.141 17.9988C154.141 23.6912 149.804 27.703 144.057 27.703C138.31 27.703 133.973 23.637 133.973 17.9988ZM148.448 17.9988C148.448 15.3424 146.768 13.3907 144.111 13.3907C141.455 13.3907 139.774 15.3424 139.774 17.9988C139.774 20.6553 141.455 22.607 144.111 22.607C146.768 22.607 148.448 20.7095 148.448 17.9988ZM130.178 13.4991C130.558 14.2581 130.72 15.0713 130.72 15.9387C130.72 17.9988 129.636 19.8963 127.901 21.3601C130.287 22.4985 131.696 25.2634 131.696 27.8657C131.696 32.7449 127.739 35.9977 121.721 35.9977C115.703 35.9977 111.746 32.7991 111.746 27.8657C111.692 25.155 113.155 22.6612 115.541 21.3601C113.752 19.8963 112.722 17.9988 112.722 15.9387C112.722 11.6559 116.083 8.5115 121.396 8.5115C124.54 8.5115 125.462 9.05363 127.251 9.05363C128.444 9.10784 129.69 8.78256 130.72 8.132C131.1 7.91515 131.479 7.75251 131.913 7.75251C132.618 7.75251 132.997 8.45728 132.997 9.3247C133.16 11.2222 131.967 12.9028 130.178 13.4991ZM126.112 27.703C126.112 25.5345 124.432 24.0165 121.775 24.0165C119.119 24.0165 117.438 25.4803 117.438 27.703C117.438 29.7631 119.281 31.3895 121.775 31.3895C124.269 31.3895 126.112 29.7631 126.112 27.703ZM118.251 16.264C118.306 18.1615 119.932 19.6794 121.884 19.6252C123.727 19.571 125.136 18.1073 125.245 16.264C125.245 14.3123 123.835 12.957 121.775 12.957C119.715 12.957 118.251 14.2581 118.251 16.264ZM109.144 18.3783V25.155C109.144 26.4561 108.656 26.9982 107.246 26.9982H105.349C103.939 26.9982 103.451 26.4561 103.451 25.155V18.541C103.451 16.8604 103.18 15.6677 102.584 14.9087C101.879 14.0413 100.795 13.6076 99.7104 13.6618C98.572 13.6076 97.4877 14.0955 96.7287 14.9087C96.0781 15.6677 95.6444 16.8604 95.6444 18.4868V25.1008C95.6444 26.4561 95.0481 26.944 93.747 26.944H91.8495C90.5484 26.944 89.952 26.4561 89.952 25.1008V9.92104C89.952 9.05363 90.3857 8.67414 91.0363 8.67414C92.0121 8.67414 93.3675 9.48734 94.3975 11.0595C95.9697 9.3247 98.1925 8.34886 100.524 8.34886C103.289 8.34886 105.511 9.3247 106.975 10.9511C108.439 12.5775 109.144 14.8002 109.144 18.3783ZM79.5431 3.09016C79.5431 1.35533 81.0068 0 82.6874 0H82.7959C84.4765 0.108427 85.7776 1.57219 85.6692 3.2528C85.5608 4.93341 84.097 6.23454 82.4164 6.12611C80.79 6.0719 79.5431 4.71656 79.5431 3.09016ZM79.9226 25.155V10.8969C79.9226 9.59576 80.4105 8.99942 81.82 8.99942H83.7175C85.127 8.99942 85.615 9.54155 85.615 10.8969V25.155C85.615 26.4561 85.127 26.9982 83.7175 26.9982H81.82C80.4105 26.9982 79.9226 26.4561 79.9226 25.155ZM69.8931 25.155V7.26459C69.8931 2.76488 72.3869 0.216853 74.5012 0.216853C75.1518 0.216853 75.5855 0.65056 75.5855 1.46376V25.155C75.5855 26.5103 75.0434 26.9982 73.688 26.9982H71.7906C70.4894 26.9982 69.8931 26.5103 69.8931 25.155ZM46.4729 17.9988C46.4729 12.3064 50.81 8.29464 56.5566 8.29464C62.3032 8.29464 66.6403 12.3064 66.6403 17.9988C66.6403 23.6912 62.3032 27.703 56.5566 27.703C50.81 27.703 46.4729 23.637 46.4729 17.9988ZM60.8937 17.9988C60.8937 15.3424 59.2131 13.3907 56.5566 13.3907C53.9002 13.3907 52.2195 15.3424 52.2195 17.9988C52.2195 20.6553 53.9002 22.607 56.5566 22.607C59.2131 22.607 60.8937 20.7095 60.8937 17.9988ZM43.5454 10.8969V26.0766C43.5454 26.944 43.1117 27.3235 42.4611 27.3235C41.4853 27.3235 40.13 26.5103 39.1541 24.9924C37.6361 26.7272 35.4676 27.703 33.1364 27.6488C30.9679 27.703 28.9078 26.944 27.2814 25.4803C25.6008 23.8539 24.6792 21.3601 24.6792 17.782V10.8969C24.6792 9.59576 25.1671 8.99942 26.5766 8.99942H28.4741C29.8836 8.99942 30.3716 9.54155 30.3716 10.8969V17.2941C30.3716 19.4626 30.7511 20.6011 31.4558 21.3601C32.1064 22.0106 33.0822 22.3901 34.0038 22.3359C35.0339 22.3359 36.0097 21.9564 36.7145 21.1974C37.4193 20.4384 37.7988 19.2457 37.7988 17.4025V10.8969C37.7988 9.54155 38.3951 8.99942 39.6963 8.99942H41.5937C42.9491 8.99942 43.5454 9.54155 43.5454 10.8969ZM20.7758 1.46376V26.0766C20.7758 26.944 20.3421 27.3235 19.6915 27.3235C18.7157 27.3235 17.3604 26.5103 16.3845 25.0466C15.1918 26.4561 12.7522 27.703 9.93312 27.703C4.29493 27.703 0.5 23.5828 0.5 17.9988C0.5 12.4149 4.40336 8.29464 9.93312 8.29464C11.7764 8.29464 13.5654 8.83678 15.1376 9.86683V7.26459C15.1376 2.76488 17.6856 0.216853 19.7457 0.216853C20.3963 0.216853 20.7758 0.65056 20.7758 1.46376ZM15.1376 17.9988C15.1376 15.234 13.1859 13.3907 10.7463 13.3907C8.30672 13.3907 6.30083 15.234 6.30083 17.9988C6.30083 20.7637 8.25251 22.607 10.7463 22.607C13.2401 22.607 15.1376 20.8179 15.1376 17.9988Z" fill="white"/>
</svg>
