<svg width="44" height="43" viewBox="0 0 44 43" fill="none" xmlns="http://www.w3.org/2000/svg">
<path d="M22.4369 35.1017C28.2528 35.1017 32.9675 30.4287 32.9675 24.6642C32.9675 18.8996 28.2528 14.2266 22.4369 14.2266C16.621 14.2266 11.9062 18.8996 11.9062 24.6642C11.9062 30.4287 16.621 35.1017 22.4369 35.1017Z" fill="#FF9600"/>
<path fill-rule="evenodd" clip-rule="evenodd" d="M23.9875 9.56896L30.6604 18.1304C30.8716 18.4013 31.0025 18.7262 31.0381 19.0679C31.0737 19.4096 31.0126 19.7545 30.8618 20.0632C30.711 20.3719 30.4765 20.632 30.185 20.8139C29.8936 20.9958 29.5569 21.0922 29.2133 21.0921H15.663C15.3195 21.0922 14.9829 20.9959 14.6915 20.8141C14.4 20.6323 14.1655 20.3723 14.0146 20.0637C13.8637 19.7552 13.8025 19.4104 13.8379 19.0688C13.8734 18.7271 14.004 18.4023 14.2151 18.1312L20.888 9.56896C21.0718 9.33337 21.3069 9.14279 21.5755 9.01171C21.844 8.88063 22.1389 8.8125 22.4377 8.8125C22.7365 8.8125 23.0314 8.88063 23.3 9.01171C23.5685 9.14279 23.8036 9.33337 23.9875 9.56896Z" fill="#FF9600"/>
<path fill-rule="evenodd" clip-rule="evenodd" d="M14.9356 13.1173L28.4209 21.8006C28.7431 22.0082 28.9922 22.3115 29.1332 22.6679C29.2741 23.0243 29.2999 23.416 29.2068 23.7878C29.1138 24.1596 28.9066 24.4929 28.6144 24.7409C28.3221 24.9889 27.9596 25.1391 27.5776 25.1704L13.8904 26.2937C13.6379 26.3144 13.3838 26.2826 13.1442 26.2003C12.9046 26.1179 12.6847 25.9868 12.4983 25.8153C12.3119 25.6437 12.163 25.4354 12.0611 25.2034C11.9592 24.9714 11.9065 24.7209 11.9062 24.4675V14.7697C11.9064 14.4167 12.0016 14.0702 12.1818 13.7667C12.3621 13.4632 12.6207 13.2138 12.9306 13.0447C13.2406 12.8757 13.5903 12.7932 13.9431 12.806C14.2958 12.8187 14.6387 12.9263 14.9356 13.1173Z" fill="#FF9600"/>
<path d="M22.4353 30.8484C24.9173 30.8484 26.9293 28.8659 26.9293 26.4203C26.9293 23.9747 24.9173 21.9922 22.4353 21.9922C19.9534 21.9922 17.9414 23.9747 17.9414 26.4203C17.9414 28.8659 19.9534 30.8484 22.4353 30.8484Z" fill="#FFC800"/>
<path fill-rule="evenodd" clip-rule="evenodd" d="M23.0979 20.0174L25.9332 23.6347C26.0243 23.7506 26.0809 23.8897 26.0966 24.0363C26.1123 24.1828 26.0865 24.3308 26.022 24.4634C25.9576 24.5959 25.8572 24.7077 25.7322 24.7858C25.6072 24.864 25.4628 24.9054 25.3154 24.9054H19.5552C19.4078 24.9054 19.2634 24.864 19.1384 24.7858C19.0135 24.7077 18.913 24.5959 18.8486 24.4634C18.7841 24.3308 18.7583 24.1828 18.774 24.0363C18.7897 23.8897 18.8463 23.7506 18.9374 23.6347L21.7728 20.0174C21.8516 19.9171 21.9522 19.8359 22.067 19.7801C22.1817 19.7243 22.3077 19.6953 22.4353 19.6953C22.5629 19.6953 22.6889 19.7243 22.8037 19.7801C22.9184 19.8359 23.019 19.9171 23.0979 20.0174Z" fill="#FFC800"/>
</svg>
