<svg width="30" height="26" viewBox="0 0 30 26" fill="none" xmlns="http://www.w3.org/2000/svg">
<path fill-rule="evenodd" clip-rule="evenodd" d="M3.97817 11.8074C3.97817 5.59269 9.01619 0.554688 15.2308 0.554688C21.4456 0.554688 26.4836 5.59269 26.4836 11.8074V12.1485C28.5149 13.1404 29.9142 15.2263 29.9142 17.6391C29.9142 21.0117 27.1801 23.7457 23.8075 23.7457H6.51682C3.14419 23.7457 0.410156 21.0117 0.410156 17.6391C0.410156 15.1723 1.87281 13.0471 3.97817 12.0835V11.8074Z" fill="#9069CD"/>
<path fill-rule="evenodd" clip-rule="evenodd" d="M6.52847 17.3681C4.91344 17.0499 3.69531 15.6261 3.69531 13.9177C3.69531 12.1799 4.95577 10.7365 6.61232 10.4518C7.25634 6.43554 10.7375 3.36719 14.9353 3.36719C19.1332 3.36719 22.6144 6.43561 23.2583 10.4519C24.9145 10.7369 26.1745 12.1802 26.1745 13.9177C26.1745 15.6258 24.9568 17.0495 23.3422 17.368C23.0218 21.7312 19.3803 25.1716 14.9353 25.1716C10.4904 25.1716 6.84894 21.7313 6.52847 17.3681Z" fill="#F3AD6D"/>
<path fill-rule="evenodd" clip-rule="evenodd" d="M12.0742 11.1933C12.0742 10.6249 12.535 10.1641 13.1035 10.1641C13.6719 10.1641 14.1327 10.6249 14.1327 11.1933V13.9379C14.1327 14.5062 13.6719 14.9671 13.1035 14.9671C12.535 14.9671 12.0742 14.5062 12.0742 13.9379V11.1933Z" fill="#BF8034"/>
<path fill-rule="evenodd" clip-rule="evenodd" d="M15.6406 11.1933C15.6406 10.6249 16.1014 10.1641 16.6698 10.1641C17.2383 10.1641 17.699 10.6249 17.699 11.1933V13.9379C17.699 14.5062 17.2383 14.9671 16.6698 14.9671C16.1014 14.9671 15.6406 14.5062 15.6406 13.9379V11.1933Z" fill="#BF8034"/>
<path d="M12.0737 16.5078H17.8522C18.21 16.5078 18.5001 16.7979 18.5001 17.1558V17.4917C18.5001 19.4452 16.9165 21.0288 14.963 21.0288C13.0095 21.0288 11.4258 19.4452 11.4258 17.4917V17.1558C11.4258 16.7979 11.7159 16.5078 12.0737 16.5078Z" fill="white"/>
<path fill-rule="evenodd" clip-rule="evenodd" d="M17.5769 3.14839L18.0603 3.72005V5.65413L15.5575 8.24794L12.0449 10.0941L8.13743 10.7536H5.89844V9.56676L7.17168 6.95093L8.9279 4.68719L12.7476 2.79688H16.0404L17.5769 3.14839Z" fill="#9069CD"/>
<path d="M4.33203 11.1176H7.26664C10.9044 11.0929 16.6944 10.5756 18.5808 3.91814C18.6773 3.52729 18.7701 3.0754 18.8592 2.5625" stroke="#9069CD" stroke-width="1.85712"/>
</svg>
