<svg width="168" height="163" viewBox="0 0 168 163" fill="none" xmlns="http://www.w3.org/2000/svg">
<g clip-path="url(#clip0_3_359)">
<path fill-rule="evenodd" clip-rule="evenodd" d="M137.51 162.197H38.8448C36.2597 162.197 34.1055 160.043 34.1055 157.458C34.1055 154.873 36.2597 152.719 38.8448 152.719H137.51C140.095 152.719 142.249 154.873 142.249 157.458C142.249 160.043 140.181 162.197 137.51 162.197Z" fill="#AFAFAF" fill-opacity="0.3"/>
<path fill-rule="evenodd" clip-rule="evenodd" d="M126.393 134.105C124.756 130.831 120.792 129.452 117.517 131.089L108.125 135.656C104.85 137.294 103.472 141.257 105.109 144.532C106.746 147.806 110.71 149.185 113.984 147.548L123.377 142.981C126.651 141.344 128.03 137.38 126.393 134.105Z" fill="#F49000"/>
<path fill-rule="evenodd" clip-rule="evenodd" d="M82.7906 145.994C82.7906 142.289 79.7746 139.359 76.1555 139.359H65.7289C62.0235 139.359 59.0938 142.375 59.0938 145.994C59.0938 149.7 62.1097 152.63 65.7289 152.63H76.1555C79.8608 152.63 82.7906 149.7 82.7906 145.994Z" fill="#F49000"/>
<path fill-rule="evenodd" clip-rule="evenodd" d="M12.3909 45.3498C32.9856 37.6806 45.7387 31.9072 50.7366 28.2019C53.5802 26.0477 55.6483 22.6009 56.9409 17.8615C59.4398 8.64128 68.9185 3.12638 78.1387 5.62532C81.8441 6.65936 85.2047 8.81362 87.5313 11.9157L118.811 53.4498C135.787 76.0264 131.306 108.082 108.729 125.143C86.1526 142.119 54.0973 137.638 37.0356 115.062L4.54939 71.9764C-1.22401 64.3072 0.327055 53.536 7.9962 47.7626C9.28875 46.7285 10.7536 45.953 12.3909 45.3498Z" fill="#58CC02"/>
<path fill-rule="evenodd" clip-rule="evenodd" d="M56.5094 43.2786C62.886 44.485 68.1424 39.4871 68.6594 34.0584C69.5211 25.6999 75.8977 32.5073 87.703 54.3945L70.5551 67.3201C56.8541 50.5169 52.2009 42.5031 56.5094 43.2786Z" fill="#89E219"/>
<path fill-rule="evenodd" clip-rule="evenodd" d="M38.3286 48.1056L39.3626 47.3301C47.8073 40.9535 59.8712 42.6769 66.2478 51.1216L73.2275 60.3418C79.6041 68.7865 77.8807 80.8503 69.4361 87.2269L68.402 88.0024C59.9573 94.379 47.8935 92.6556 41.5169 84.2109L34.5371 74.9907C28.1605 66.546 29.8839 54.4822 38.3286 48.1056Z" fill="#89E219"/>
<path fill-rule="evenodd" clip-rule="evenodd" d="M36.5191 39.6591L59.0957 43.7953C60.3021 44.0538 60.9053 45.3463 60.3021 46.3804C57.4585 51.4644 51.5989 54.2219 45.7393 53.1016C39.8797 51.9814 35.3989 47.1559 34.7095 41.3825C34.5372 40.1761 35.3989 39.4006 36.5191 39.6591Z" fill="#89E219"/>
<path fill-rule="evenodd" clip-rule="evenodd" d="M32.8135 47.501L55.1316 51.8095C56.338 52.068 56.9412 53.3606 56.338 54.3946C53.4944 59.4787 47.6348 62.2361 41.7752 61.1159C35.9156 59.9957 31.4348 55.1702 30.7454 49.3968C30.5731 48.2765 31.6071 47.2425 32.8135 47.501Z" fill="#89E219"/>
<path fill-rule="evenodd" clip-rule="evenodd" d="M70.6426 14.4957L68.7469 33.0223C68.6607 33.9702 69.7809 34.8319 70.9873 34.5734C76.5883 33.6255 80.8107 29.6617 81.2415 24.8361C81.6724 20.0106 78.2256 15.4436 72.883 13.4617C71.6766 13.117 70.7288 13.5478 70.6426 14.4957Z" fill="#89E219"/>
<path fill-rule="evenodd" clip-rule="evenodd" d="M79.2598 14.5894L77.364 33.116C77.2779 34.0639 78.3981 34.9256 79.6045 34.6671C85.2055 33.7192 89.4279 29.7554 89.8587 24.9299C90.2896 20.1043 86.8428 15.5373 81.5002 13.5554C80.2938 13.2107 79.346 13.6416 79.2598 14.5894Z" fill="#89E219"/>
<path fill-rule="evenodd" clip-rule="evenodd" d="M75.1226 20.3608C81.7577 15.3629 91.2364 16.6554 96.2343 23.2905L108.212 39.1459C113.21 45.781 111.917 55.2597 105.282 60.2576C98.6471 65.2554 89.1683 63.9629 84.1705 57.3278L72.1928 41.4725C67.1949 34.8374 68.4875 25.3586 75.1226 20.3608Z" fill="#89E219"/>
<path fill-rule="evenodd" clip-rule="evenodd" d="M43.3253 52.7575C49.5296 48.1043 58.4051 49.3107 63.0583 55.515L68.3147 62.4948C72.9679 68.699 71.7615 77.5745 65.5573 82.2277C59.353 86.8809 50.4775 85.6745 45.8243 79.4703L40.5679 72.4905C35.8285 66.2863 37.1211 57.4107 43.3253 52.7575Z" fill="white"/>
<path fill-rule="evenodd" clip-rule="evenodd" d="M48.4976 59.1329C51.4274 56.9787 55.5636 57.4957 57.7178 60.4255L62.1987 66.3712C64.3529 69.301 63.8359 73.4372 60.9061 75.5915C57.9763 77.7457 53.8402 77.2287 51.6859 74.2989L47.2051 68.3532C45.0508 65.5095 45.654 61.3734 48.4976 59.1329Z" fill="#4B4B4B"/>
<path fill-rule="evenodd" clip-rule="evenodd" d="M50.91 65.7694C50.91 68.149 48.981 70.078 46.6015 70.078C44.222 70.078 42.293 68.149 42.293 65.7694C42.293 63.3899 44.222 61.4609 46.6015 61.4609C48.981 61.4609 50.91 63.3899 50.91 65.7694Z" fill="white"/>
<path fill-rule="evenodd" clip-rule="evenodd" d="M77.8815 27.2525C82.8793 23.5472 89.9453 24.4951 93.6506 29.4929L102.009 40.6089C105.714 45.6068 104.767 52.6727 99.7687 56.3781C94.7708 60.0834 87.7049 59.1355 83.9996 54.1376L75.641 43.0217C71.8495 38.0238 72.8836 30.9578 77.8815 27.2525Z" fill="white"/>
<path fill-rule="evenodd" clip-rule="evenodd" d="M82.6206 33.5413C85.0334 31.7317 88.4802 32.2487 90.2897 34.5753L96.2355 42.4168C98.045 44.8296 97.528 48.2764 95.2014 50.086C92.7887 51.8955 89.3419 51.3785 87.5323 49.0519L81.5004 41.1243C79.6908 38.7115 80.2078 35.3509 82.6206 33.5413Z" fill="#4B4B4B"/>
<path fill-rule="evenodd" clip-rule="evenodd" d="M83.5658 43.8864C85.4616 42.4215 85.8063 39.7503 84.4275 37.8545C83.0488 35.9588 80.2914 35.5279 78.3956 36.9928C76.4999 38.4577 76.1552 41.129 77.5339 43.0247C78.9126 44.9205 81.6701 45.2651 83.5658 43.8864Z" fill="white"/>
<path fill-rule="evenodd" clip-rule="evenodd" d="M51.2518 90.5851L44.7891 82.3127C45.3923 81.7957 60.5582 69.9904 76.4997 73.351L75.8965 76.1085C75.121 79.8999 72.0188 82.9159 68.1412 83.3468C59.1795 84.3808 51.338 90.4989 51.2518 90.5851Z" fill="#89E219"/>
<path fill-rule="evenodd" clip-rule="evenodd" d="M91.2363 61.7233L90.03 60.0861C87.4449 56.5531 82.5331 55.8638 79.0002 58.4489C75.4672 61.034 74.7778 65.9457 77.3629 69.4787L78.5693 71.1159C81.1544 74.6489 86.0661 75.3382 89.5991 72.7531C93.0459 70.0818 93.8214 65.1701 91.2363 61.7233Z" fill="#F49000"/>
<path fill-rule="evenodd" clip-rule="evenodd" d="M75.208 70.1647C72.9676 65.8561 74.2602 60.5136 78.224 57.4976C82.1878 54.5678 87.7027 54.9125 91.1495 58.2732L91.408 58.5317L88.4783 62.8402L75.2942 70.4232L75.208 70.1647Z" fill="#FFC200"/>
<path fill-rule="evenodd" clip-rule="evenodd" d="M78.916 62.7539C78.4851 62.84 78.0543 62.7539 77.7096 62.5815C77.0202 62.1507 76.9341 61.2028 77.3649 60.5996C78.4851 59.0486 79.95 57.9283 81.7596 57.3252C82.5351 57.0666 83.3107 57.4975 83.5692 58.273C83.8277 59.0486 83.3968 59.8241 82.6213 60.0826C81.4149 60.5135 80.3809 61.2028 79.6915 62.2369C79.5192 62.4954 79.2607 62.6677 78.916 62.7539Z" fill="#FFDE00"/>
<mask id="mask0_3_359" style="mask-type:luminance" maskUnits="userSpaceOnUse" x="62" y="3" width="103" height="103">
<path d="M119.734 4.9745L125.539 10.0426C126.299 10.7035 127.304 11.0108 128.304 10.888L135.949 9.93128C139.276 9.51308 142.439 11.4886 143.523 14.6616L146.015 21.9525C146.343 22.9049 147.06 23.6735 147.987 24.067L155.086 27.0614C158.177 28.3635 159.927 31.6573 159.277 34.9471L157.791 42.507C157.597 43.4929 157.831 44.5151 158.436 45.3177L163.089 51.4625C165.11 54.1348 164.98 57.8585 162.777 60.3833L157.707 66.1885C157.044 66.9478 156.737 67.9538 156.864 68.9536L157.818 76.5987C158.237 79.9257 156.261 83.0895 153.088 84.1729L145.797 86.6647C144.845 86.9917 144.077 87.7067 143.683 88.6324L140.688 95.7359C139.386 98.8261 136.092 100.576 132.802 99.9263L125.243 98.4408C124.254 98.2452 123.229 98.4811 122.425 99.0891L116.283 103.742C113.61 105.763 109.887 105.633 107.362 103.431L101.559 98.3563C100.8 97.6937 99.7936 97.3869 98.7938 97.513L91.1487 98.4676C87.8216 98.8866 84.6579 96.9107 83.5745 93.7372L81.0889 86.4466C80.7611 85.4941 80.0444 84.7256 79.1171 84.332L72.0178 81.3377C68.9282 80.0349 67.1781 76.7416 67.8273 73.452L69.315 65.8922C69.5072 64.9034 69.2708 63.8794 68.6645 63.0749L64.0135 56.9365C61.9898 54.2649 62.1199 50.5396 64.3251 48.0157L69.3932 42.2083C70.0542 41.4481 70.3614 40.4431 70.2386 39.4433L69.2819 31.7981C68.8637 28.4712 70.8393 25.308 74.0122 24.2239L81.3029 21.7384C82.2554 21.4105 83.0239 20.6938 83.4175 19.7665L86.4118 12.6672C87.7146 9.57758 91.0079 7.82751 94.2975 8.47677L101.857 9.96442C102.844 10.1548 103.865 9.91835 104.668 9.31374L110.813 4.66298C113.485 2.63921 117.21 2.76931 119.734 4.9745Z" fill="url(#paint0_linear_3_359)"/>
</mask>
<g mask="url(#mask0_3_359)">
<path fill-rule="evenodd" clip-rule="evenodd" d="M60.8037 103.386L162.736 106.945L166.296 5.01269L64.3633 1.45312L60.8037 103.386Z" fill="url(#paint1_linear_3_359)"/>
</g>
<path fill-rule="evenodd" clip-rule="evenodd" d="M133.501 48.0638C137.055 56.7526 133.936 66.7411 126.069 71.8632C118.202 76.9854 107.805 75.7971 101.297 69.0319C94.0515 71.3621 86.192 68.8705 81.7119 62.9304C81.2656 62.3376 81.13 61.567 81.3472 60.8574C81.5644 60.1479 82.1081 59.5852 82.8098 59.3438L92.4176 56.0335L87.8521 49.0069C86.646 47.1505 86.4507 44.8132 87.3319 42.7824C88.2132 40.7516 90.0537 39.2977 92.2333 38.9105C97.6845 37.9462 101.206 36.9494 102.796 35.9201C104.387 34.8907 106.69 32.1257 109.704 27.625C110.939 25.7847 113.016 24.6879 115.232 24.7055C117.448 24.7231 119.507 25.8528 120.712 27.7124L125.234 34.6767L132.057 27.3597C132.563 26.8165 133.299 26.5485 134.036 26.6388C134.772 26.7291 135.421 27.1668 135.781 27.8161C139.356 34.2767 138.477 42.3974 133.501 48.0638ZM115.405 79.8869L110.351 78.9909C108.593 78.7105 106.934 79.894 106.628 81.6484C106.321 83.4029 107.48 85.0785 109.23 85.411L114.286 86.305C116.045 86.5855 117.703 85.4021 118.01 83.6475C118.316 81.8929 117.157 80.2173 115.407 79.8849L115.405 79.8869ZM142.883 58.0572C142.045 57.847 141.158 57.9791 140.417 58.4242C139.677 58.8693 139.144 59.5909 138.937 60.4295L137.698 65.4063C137.318 67.1289 138.378 68.8409 140.089 69.2693C141.8 69.6977 143.542 68.687 144.018 66.9888L145.255 62.0118C145.692 60.2648 144.63 58.4944 142.883 58.0572Z" fill="white"/>
<path fill-rule="evenodd" clip-rule="evenodd" d="M98.9934 53.3636L36.6924 98.6029C33.3317 101.016 33.3317 106.014 36.6924 108.426C52.72 120.059 74.7796 120.145 91.2381 108.168C107.697 96.1902 114.418 75.2508 108.3 56.3795C107.007 52.5019 102.268 50.9508 98.9934 53.3636Z" fill="#58CC02"/>
<path fill-rule="evenodd" clip-rule="evenodd" d="M133.546 25.1017L145.954 15.7091C148.625 13.7272 152.417 14.2442 154.399 16.9155L161.637 26.5666C163.619 29.2379 163.102 33.0294 160.431 35.0113L156.898 37.6825C152.072 41.3017 145.351 40.957 140.956 36.7347L133.201 29.324C132.081 28.29 131.995 26.4804 133.115 25.3602C133.287 25.274 133.373 25.1879 133.546 25.1017Z" fill="#58CC02"/>
</g>
<defs>
<linearGradient id="paint0_linear_3_359" x1="1606.98" y1="1655.77" x2="8359.4" y2="8896.57" gradientUnits="userSpaceOnUse">
<stop stop-color="#FFC100"/>
<stop offset="1" stop-color="#FFA300"/>
</linearGradient>
<linearGradient id="paint1_linear_3_359" x1="1606.97" y1="1655.7" x2="8359.07" y2="8896.44" gradientUnits="userSpaceOnUse">
<stop stop-color="#FFC100"/>
<stop offset="1" stop-color="#FFA300"/>
</linearGradient>
<clipPath id="clip0_3_359">
<rect width="167.17" height="162" fill="white" transform="translate(0.5 0.625)"/>
</clipPath>
</defs>
</svg>
