<svg width="186" height="181" viewBox="0 0 186 181" fill="none" xmlns="http://www.w3.org/2000/svg">
<g clip-path="url(#clip0_3_124)">
<g clip-path="url(#clip1_3_124)">
<path d="M60.7344 148.879C65.6476 145.276 72.5519 146.337 76.1554 151.251C79.7588 156.164 78.6971 163.069 73.7839 166.672L65.5464 172.713C60.6331 176.316 53.7288 175.255 50.1253 170.343C46.5217 165.429 47.5834 158.524 52.4968 154.921L60.7344 148.879Z" fill="#E619DF"/>
<path fill-rule="evenodd" clip-rule="evenodd" d="M58.2366 150.711C61.555 155.599 60.4327 162.276 55.6296 165.798L49.8898 170.009C46.5713 165.121 47.6936 158.444 52.4967 154.921L58.2366 150.711Z" fill="#C128C1"/>
<path d="M38.5937 146.489C43.507 142.885 50.4111 143.947 54.0147 148.86C57.6182 153.773 56.5565 160.678 51.6433 164.281L43.4057 170.323C38.4924 173.926 31.5882 172.864 27.9847 167.952C24.3811 163.038 25.4429 156.134 30.3561 152.53L38.5937 146.489Z" fill="#E619DF"/>
<path d="M30.0866 110.541L62.5608 33.5491C77.9342 31.5551 96.5831 58.5829 85.6268 90.0902C75.9448 117.933 52.17 123.579 33.1208 117.621C30.1756 116.7 28.8874 113.384 30.0866 110.541Z" fill="url(#paint0_radial_3_124)"/>
<path d="M116.932 12.7232C111.114 11.8613 87.3139 -8.11426 59.8425 4.59226C49.4196 9.41326 44.4178 18.0895 42.8549 31.0401C41.4699 42.5162 46.1415 54.187 49.7601 66.7016C45.2015 81.0918 42.2175 91.1185 47.059 103.777C55.9181 126.939 84.155 151.071 121.828 137.606C178.497 117.352 162.103 47.1601 157.794 31.6461C153.484 16.1321 143.903 9.06126 135.931 9.70768C127.958 10.3541 122.75 13.585 116.932 12.7232Z" fill="url(#paint1_radial_3_124)"/>
<path fill-rule="evenodd" clip-rule="evenodd" d="M59.2863 123.099C66.6103 120.754 74.882 116.121 83.0486 107.083C84.0283 105.999 83.9435 104.326 82.8595 103.347C81.7753 102.367 80.1024 102.452 79.1229 103.536C71.564 111.901 64.0709 116.02 57.6206 118.077C56.9112 118.303 56.2132 118.505 55.5273 118.685C56.6983 120.196 57.9524 121.672 59.2863 123.099Z" fill="#1F66FB"/>
<path fill-rule="evenodd" clip-rule="evenodd" d="M156.892 38.4125C155.556 28.1976 150.185 24.1204 146.587 24.591C142.988 25.0615 143.444 29.6139 144.78 39.8288C145.289 43.7241 145.505 45.8236 145.616 47.0808C148.086 48.853 149.867 51.6091 149.867 54.7792C149.246 54.9713 148.567 55.135 147.842 55.2719C148.532 56.7881 149.384 58.3191 150.345 59.4305C153.029 56.1913 156.309 54.1207 158.612 53.045C158.58 51.8568 158.465 50.489 158.259 48.9131L156.892 38.4125Z" fill="#C7FFFE"/>
<path fill-rule="evenodd" clip-rule="evenodd" d="M145.616 47.0872C146.797 47.9343 147.82 49.0062 148.567 50.2405L148.734 50.2168C151.488 49.8274 153.404 47.2796 153.015 44.5257L151.291 32.3314C150.925 29.7448 148.655 27.8968 146.099 28.0045C147.111 28.7232 147.771 29.9046 147.771 31.2402C147.771 33.2974 146.204 34.9888 144.199 35.1868C144.358 36.5834 144.557 38.1305 144.78 39.8351C145.289 43.7305 145.505 45.83 145.616 47.0872Z" fill="#3C4DFF"/>
<path fill-rule="evenodd" clip-rule="evenodd" d="M101.408 18.6178C111.278 17.3271 120.362 24.5615 121.698 34.7764L123.059 45.1803C123.91 51.6911 121.408 57.8412 116.926 61.7797C110.464 56.926 100.115 51.0294 87.3015 49.7541L85.9541 39.4506C84.6183 29.2357 91.537 19.9086 101.408 18.6178Z" fill="#C7FFFE"/>
<path fill-rule="evenodd" clip-rule="evenodd" d="M102.593 34.71C105.698 34.1817 107.784 31.2817 107.252 28.2329C107.094 27.3312 106.726 26.5174 106.204 25.8321C106.848 25.5531 107.537 25.3455 108.263 25.222C112.958 24.4229 117.405 27.4412 118.194 31.9635L119.718 40.698C120.507 45.2203 117.341 49.5341 112.645 50.3334C107.95 51.1325 103.503 48.1141 102.714 43.5918L101.189 34.8575C101.185 34.8306 101.18 34.8037 101.176 34.7768C101.639 34.8118 102.114 34.7915 102.593 34.71Z" fill="#3C4DFF"/>
<path fill-rule="evenodd" clip-rule="evenodd" d="M130.216 57.2182C131.047 57.1369 131.787 57.7447 131.868 58.5756C132.51 65.1395 134.235 69.5466 136.581 71.6046C137.698 72.5849 138.976 73.0542 140.473 72.9832C142.015 72.9101 143.901 72.2562 146.144 70.7606C146.839 70.2975 147.777 70.4852 148.241 71.1799C148.704 71.8746 148.516 72.8132 147.821 73.2764C145.295 74.9601 142.882 75.8959 140.617 76.0033C138.307 76.1129 136.27 75.3539 134.587 73.8773C131.333 71.0218 129.517 65.6016 128.859 58.8699C128.778 58.039 129.385 57.2995 130.216 57.2182Z" fill="#0455FF"/>
<path d="M141.228 68.9291C137.403 68.3065 137.003 65.4151 134.289 55.2734H144.431C144.653 56.9637 145.276 62.1681 145.588 64.3921C145.962 67.0707 144.52 69.4648 141.228 68.9291Z" fill="#0455FF"/>
<path fill-rule="evenodd" clip-rule="evenodd" d="M133.707 46.6897C134.311 47.2656 135.24 47.6871 136.537 47.7423C136.674 47.7482 136.809 47.7534 136.942 47.7587C139.441 47.8568 141.308 47.9302 143.053 50.9431C143.848 52.3176 147.352 52.286 147.926 49.3025C145.905 46.6783 142.594 44.992 139.427 44.9922C137.267 44.9922 135.308 45.6437 133.707 46.6897Z" fill="#C7FFFE"/>
<path fill-rule="evenodd" clip-rule="evenodd" d="M128.421 54.2131C128.634 53.4057 129.461 52.9235 130.268 53.1361C137.418 55.0195 144.093 54.2705 148.2 53.4491C149.019 53.2854 149.815 53.8163 149.979 54.6351C150.143 55.4537 149.612 56.2501 148.793 56.414C144.448 57.2829 137.264 58.1058 129.498 56.06C128.691 55.8474 128.209 55.0203 128.421 54.2131Z" fill="#0455FF"/>
<path fill-rule="evenodd" clip-rule="evenodd" d="M84.2758 8.06772C83.4381 7.75612 82.6203 7.73018 81.7824 8.2402C81.0692 8.67434 80.1392 8.44814 79.7051 7.73497C79.2709 7.02178 79.4971 6.09169 80.2103 5.65755C82.0315 4.54884 83.8604 4.68732 85.3298 5.23386C86.7489 5.76163 87.9009 6.68697 88.5949 7.30392C89.2189 7.85861 89.2752 8.81417 88.7204 9.4382C88.1658 10.0622 87.2101 10.1184 86.5861 9.56375C85.9797 9.02457 85.164 8.39808 84.2758 8.06772Z" fill="#C7FFFE"/>
<path fill-rule="evenodd" clip-rule="evenodd" d="M134.268 11.0275C134.98 10.5914 135.911 10.8151 136.347 11.5271C138.233 14.6065 138.784 17.4597 137.843 19.6978C136.869 22.0148 134.56 23.0814 132.094 23.0814C131.259 23.0814 130.582 22.4046 130.582 21.5697C130.582 20.7348 131.259 20.0578 132.094 20.0578C133.748 20.0578 134.693 19.3897 135.056 18.526C135.452 17.5834 135.425 15.81 133.769 13.1063C133.332 12.3943 133.556 11.4636 134.268 11.0275Z" fill="#1F66FB"/>
<path fill-rule="evenodd" clip-rule="evenodd" d="M81.6694 5.67871C82.4014 6.08017 82.6694 6.99909 82.268 7.73117C80.6225 10.7318 81.4382 14.4043 81.9397 15.9088L82.309 17.0167L81.3305 17.6537C81.0414 17.842 80.5142 18.348 79.8711 19.2351C79.2508 20.091 78.5893 21.2093 77.9996 22.5153C76.8151 25.1382 75.9685 28.4088 76.232 31.7307C76.958 40.8785 77.9625 50.0897 79.491 54.9531C79.5603 55.1737 79.6302 55.4002 79.7017 55.6319C80.4725 58.1276 81.4305 61.23 83.8356 64.1222C86.4216 67.2319 90.8056 70.222 98.8163 71.5456C111.768 73.6854 119.186 69.7536 121.068 67.9105C121.665 67.3264 122.622 67.3364 123.206 67.933C123.79 68.5296 123.78 69.4867 123.184 70.0708C120.442 72.7557 111.962 76.782 98.3236 74.5287C89.715 73.1064 84.6333 69.8102 81.5108 66.0554C78.7008 62.6764 77.5799 59.025 76.8174 56.5416C76.7442 56.3031 76.6743 56.0753 76.6065 55.8596C74.9557 50.607 73.9371 41.031 73.218 31.9699C72.9036 28.008 73.9116 24.2214 75.2439 21.2708C75.9127 19.79 76.6751 18.4925 77.4231 17.4607C77.86 16.8579 78.3187 16.3085 78.7776 15.8607C78.2271 13.7113 77.6911 9.78909 79.617 6.27732C80.0183 5.54524 80.9373 5.27724 81.6694 5.67871Z" fill="#1F66FB"/>
<path fill-rule="evenodd" clip-rule="evenodd" d="M163.254 66.625C162.902 67.3104 162.229 68.1584 161.271 68.6701C160.276 69.2013 158.814 69.4588 156.728 68.4884C155.971 68.1362 155.072 68.4645 154.72 69.2216C154.367 69.9787 154.696 70.8778 155.453 71.2299C158.337 72.5718 160.802 72.3476 162.695 71.3373C162.915 71.2199 163.125 71.0932 163.325 70.9588C163.326 69.499 163.302 68.053 163.254 66.625Z" fill="#0455FF"/>
<path fill-rule="evenodd" clip-rule="evenodd" d="M91.0348 5.54587C90.2248 5.3237 89.8367 5.32264 89.7273 5.34369C88.9074 5.50136 88.1148 4.96452 87.9571 4.14463C87.7996 3.32472 88.3364 2.53223 89.1562 2.37455C89.9862 2.21495 90.9447 2.38592 91.8345 2.62999C92.7771 2.88852 93.8734 3.29755 95.0773 3.80718C97.4868 4.82727 100.484 6.31836 103.817 8.02186C104.903 8.57681 106.027 9.15536 107.181 9.74981C113.155 12.8255 119.954 16.3267 126.625 19.1858C128.766 20.1036 131.118 20.1411 131.781 20.0675C132.611 19.9753 133.358 20.5731 133.45 21.403C133.543 22.2328 132.945 22.9804 132.115 23.0725C131.043 23.1916 128.148 23.1282 125.433 21.9648C118.655 19.0595 111.743 15.4999 105.771 12.425C104.624 11.8341 103.511 11.2611 102.441 10.7141C99.1022 9.00769 96.195 7.56369 93.8985 6.59149C92.7494 6.10498 91.7922 5.75358 91.0348 5.54587Z" fill="#C7FFFE"/>
<g style="mix-blend-mode:overlay">
<path d="M118.016 94.6407L132.458 94.8229C133.232 94.8327 133.75 95.7212 133.482 96.5775C132.19 100.692 128.75 103.501 124.935 103.453C121.119 103.405 117.877 100.511 116.871 96.3678C116.662 95.5055 117.241 94.6309 118.016 94.6407Z" fill="#204AFF"/>
</g>
<g style="mix-blend-mode:overlay">
<path d="M142.123 95.0246L154.962 94.61C155.738 94.5838 156.274 95.4453 156.019 96.3113C154.798 100.473 152.482 103.242 148.656 103.371C144.83 103.501 142.088 100.883 141.007 96.7992C140.782 95.9493 141.347 95.0507 142.123 95.0246Z" fill="#204AFF"/>
</g>
<g style="mix-blend-mode:overlay">
<path d="M130.116 110.523L143.413 110.718C144.188 110.7 144.724 111.569 144.471 112.433C143.257 116.586 141.032 118.987 137.211 119.075C133.391 119.162 130.089 116.389 129.004 112.288C128.777 111.435 129.341 110.541 130.116 110.523Z" fill="#204AFF"/>
</g>
</g>
</g>
<defs>
<radialGradient id="paint0_radial_3_124" cx="0" cy="0" r="1" gradientUnits="userSpaceOnUse" gradientTransform="translate(133.284 18.9149) rotate(119.366) scale(133.976 179.711)">
<stop stop-color="#26FF55"/>
<stop offset="0.569543" stop-color="#268AFF"/>
<stop offset="0.987801" stop-color="#FC55FF"/>
</radialGradient>
<radialGradient id="paint1_radial_3_124" cx="0" cy="0" r="1" gradientUnits="userSpaceOnUse" gradientTransform="translate(133.284 18.9142) rotate(119.366) scale(133.976 179.711)">
<stop stop-color="#26FF55"/>
<stop offset="0.569543" stop-color="#268AFF"/>
<stop offset="0.987801" stop-color="#FC55FF"/>
</radialGradient>
<clipPath id="clip0_3_124">
<rect width="185" height="180" fill="white" transform="translate(0.5 0.375)"/>
</clipPath>
<clipPath id="clip1_3_124">
<rect width="143.077" height="180" fill="white" transform="translate(21.4609 0.375)"/>
</clipPath>
</defs>
</svg>
